# xmcd CD database file
#
# Track frame offsets:
#	150
#	21530
#	40892
#	61520
#	79460
#	96060
#	118090
#	137452
#	161695
#	181550
#	191780
#	215770
#	242625
#
# Disc length: 3374 seconds
#
# Revision: 0
# Processed by: cddbd v1.5.1PL0 Copyright (c) Steve Scherf et al.
# Submitted via: CDex 1.51
#
DISCID=b00d2c0d
DTITLE=サイコベイビーズ - フラワーズ
DYEAR=1996
DGENRE=Rock
TTITLE0=ボクらは何処へ行くのだろう
TTITLE1=ブランコのようだ
TTITLE2=金色のヒマワリ ミルクの空
TTITLE3=愛はいろんな姿でボクらを包み込む
TTITLE4=レインソング
TTITLE5=ハッピーエンドでいいのだ
TTITLE6=胸の上で十字を切って
TTITLE7=花のひかり 星のしずく
TTITLE8=本物!! 牛じじい
TTITLE9=Home sweet home
TTITLE10=グライダー
TTITLE11=きっと大丈夫だよね
TTITLE12=またね
EXTD=YEAR: 1996
EXTT0=
EXTT1=
EXTT2=
EXTT3=
EXTT4=
EXTT5=
EXTT6=
EXTT7=
EXTT8=
EXTT9=
EXTT10=
EXTT11=
EXTT12=
PLAYORDER=
